# xmcd CD database file
#
# Track frame offsets:
#	150
#	10707
#	21302
#	32735
#	44377
#	56855
#	66132
#	77272
#	89835
#	99250
#	112650
#	122512
#	136642
#	147897
#	157715
#	170775
#
# Disc length: 2408 seconds
#
# Revision: 3
# Processed by: cddbd v1.5.1PL0 Copyright (c) Steve Scherf et al.
# Submitted via: CDex 1.51
#
DISCID=c1096610
DTITLE=Jim Reeves - Norske Hits
DYEAR=1994
DGENRE=Oldies
TTITLE0=He'll Have To Go
TTITLE1=You're The Only Good Thing
TTITLE2=Adios Amigo
TTITLE3=Welcome To My World
TTITLE4=I Love You Because
TTITLE5=I Won't Forget You
TTITLE6=I Guess I'm Crazy
TTITLE7=Not Until The Next Time
TTITLE8=Here's A Heartache Following Me
TTITLE9=Rosa Rio
TTITLE10=It Hurt's So Much
TTITLE11=This Is It
TTITLE12=How Long Has It Been
TTITLE13=Snow Flake
TTITLE14=Distant Drums
TTITLE15=I Won't Come In While He's There
EXTD=YEAR: 1994
EXTT0=
EXTT1=
EXTT2=
EXTT3=
EXTT4=
EXTT5=
EXTT6=
EXTT7=
EXTT8=
EXTT9=
EXTT10=
EXTT11=
EXTT12=
EXTT13=
EXTT14=
EXTT15=
PLAYORDER=
